# xmcd CD database file
#
# Track frame offsets:
#	150
#	14671
#	29400
#	44227
#	76794
#	90694
#	106598
#	120598
#	134367
#	149766
#
# Disc length: 2203 seconds
#
# Revision: 0
# Processed by: cddbd v1.5.1PL0 Copyright (c) Steve Scherf et al.
# Submitted via: CDex 1.51
#
DISCID=8808990a
DTITLE=Artie Shaw - Masters of Jazz
DYEAR=2004
DGENRE=Jazz
TTITLE0=Any Old Time
TTITLE1=Begin the Beguine
TTITLE2=Comes Love
TTITLE3=Dancing on the Ceiling
TTITLE4=Frenesi
TTITLE5=I Cover the Waterfront
TTITLE6=Indian Love Call
TTITLE7=Let's Walk
TTITLE8=Lover Come Back to Me
TTITLE9=Moonglow
EXTD=YEAR: 2004
EXTT0=
EXTT1=
EXTT2=
EXTT3=
EXTT4=
EXTT5=
EXTT6=
EXTT7=
EXTT8=
EXTT9=
PLAYORDER=
